# xmcd CD database file
# Copyright (C) 1993-1998 Ti Kan
#
# Track frame offsets:
#  150
#  22235
#  40017
#  57937
#  70505
#  89102
#  112385
#  128292
#  143847
#  159075
#  174595
#
# Disc length: 2927 seconds
#
# Revision: 1
# Processed by: cddbd v1.4b41PL1 Copyright (c) Steve Scherf et al.
# Submitted via: CDWizzard Release:4.60
#
DISCID=920b6d0b
DTITLE=Speedbuggy - Max. Size Approx. 30 Inches
DYEAR=1900
DGENRE=
TTITLE0=Punched Drunkard
TTITLE1=Boozecan Fever
TTITLE2=Wearing Your Heart On Your Sleeve Can Be Fun
TTITLE3=Chalk River Feeling
TTITLE4=Raspberries
TTITLE5=Dynamo
TTITLE6=Get Bent
TTITLE7=Sundown Scientific
TTITLE8=Greetings From Arizona
TTITLE9=One Word
TTITLE10=Knock Me Down
EXTD=
EXTT0=
EXTT1=
EXTT2=
EXTT3=
EXTT4=
EXTT5=
EXTT6=
EXTT7=
EXTT8=
EXTT9=
EXTT10=
PLAYORDER=
